<svg width="20" height="20" viewBox="0 0 20 20" fill="none" xmlns="http://www.w3.org/2000/svg">
<path fill-rule="evenodd" clip-rule="evenodd" d="M14.4001 9.10555C14.4001 9.81467 14.2604 10.5169 13.989 11.172C13.7176 11.8272 13.3198 12.4225 12.8185 12.9239C12.317 13.4253 11.7217 13.8231 11.0666 14.0945C10.4114 14.3659 9.70922 14.5055 9.00008 14.5055C8.29094 14.5055 7.58875 14.3659 6.93358 14.0945C6.27843 13.8231 5.68313 13.4253 5.1817 12.9239C4.68026 12.4225 4.28251 11.8272 4.01113 11.172C3.73975 10.5169 3.60008 9.81467 3.60008 9.10555C3.60008 7.67337 4.169 6.29986 5.1817 5.28717C6.19439 4.27447 7.5679 3.70555 9.00008 3.70555C10.4322 3.70555 11.8057 4.27447 12.8185 5.28717C13.8312 6.29986 14.4001 7.67337 14.4001 9.10555ZM13.4161 14.7935C11.9693 15.9167 10.1489 16.4463 8.32544 16.2745C6.50195 16.1027 4.81249 15.2425 3.60098 13.8688C2.38946 12.4952 1.74698 10.7115 1.80431 8.88085C1.86166 7.05019 2.61452 5.31019 3.90962 4.01509C5.20473 2.71999 6.94472 1.96713 8.77538 1.90978C10.606 1.85244 12.3897 2.49493 13.7634 3.70645C15.137 4.91795 15.9973 6.60742 16.169 8.43091C16.3408 10.2544 15.8113 12.0748 14.6881 13.5215L18.3361 17.1695C18.4245 17.252 18.4954 17.3513 18.5446 17.4617C18.5938 17.5721 18.6202 17.6913 18.6224 17.8121C18.6246 17.933 18.6022 18.053 18.557 18.1651C18.5118 18.2771 18.4443 18.3789 18.3589 18.4643C18.2734 18.5499 18.1717 18.6172 18.0596 18.6625C17.9475 18.7077 17.8275 18.73 17.7067 18.7279C17.5858 18.7257 17.4666 18.6993 17.3563 18.6501C17.2459 18.6009 17.1465 18.53 17.0641 18.4415L13.4161 14.7935Z" fill="#FF9359"/>
</svg>
